<svg xmlns="http://www.w3.org/2000/svg" viewBox="0 0 390 120" role="img" aria-label="FORGE"><g><defs><path id="forge-module" d="M49 10H71L80 27L75 39L66 35H54L45 39L40 27L49 10Z"/><path id="forge-trace" d="M60 38V45"/><mask id="forge-cut" maskUnits="userSpaceOnUse" x="0" y="0" width="120" height="120"><rect width="120" height="120" fill="white"/><path d="M52.5 29H58V30H53.5V46H57V47H53.5V66H52.5V29Z" fill="black"/></mask></defs><g mask="url(#forge-cut)"><g fill="none" stroke="#22d3ee" stroke-width="2" stroke-linecap="round" opacity=".62"><use href="#forge-trace" transform="rotate(0 60 60)"/><use href="#forge-trace" transform="rotate(60 60 60)"/><use href="#forge-trace" transform="rotate(120 60 60)"/><use href="#forge-trace" transform="rotate(180 60 60)"/><use href="#forge-trace" transform="rotate(240 60 60)"/><use href="#forge-trace" transform="rotate(300 60 60)"/></g><g fill="#f7f9fc" stroke="#0b1020" stroke-width="1.4" stroke-linejoin="round"><use href="#forge-module" transform="rotate(0 60 60)"/><use href="#forge-module" transform="rotate(60 60 60)"/><use href="#forge-module" transform="rotate(120 60 60)"/><use href="#forge-module" transform="rotate(180 60 60)"/><use href="#forge-module" transform="rotate(240 60 60)"/><use href="#forge-module" transform="rotate(300 60 60)"/></g><path d="M49 44H71L76 49V71L71 76H49L44 71V49L49 44Z" fill="#22d3ee" stroke="#22d3ee" stroke-width="1.5" stroke-linejoin="round" opacity=".72"/><path d="M53 57V53H57M63 53H67V57M67 63V67H63M57 67H53V63" fill="none" stroke="#0b1020" stroke-width="1.5" stroke-linejoin="round" opacity=".78"/></g></g><text x="138" y="77" fill="#f7f9fc" font-family="ui-sans-serif,system-ui,-apple-system,BlinkMacSystemFont,Segoe UI,sans-serif" font-size="47" font-weight="720" letter-spacing="3">FORGE</text></svg>
